<svg id="visual" viewBox="0 0 900 600" width="900" height="600" xmlns="http://www.w3.org/2000/svg" xmlns:xlink="http://www.w3.org/1999/xlink" version="1.1"><rect x="0" y="0" width="900" height="600" fill="#002233"></rect><path d="M0 426L16.7 439.5C33.3 453 66.7 480 100 481.5C133.3 483 166.7 459 200 451.2C233.3 443.3 266.7 451.7 300 464.7C333.3 477.7 366.7 495.3 400 502.2C433.3 509 466.7 505 500 509C533.3 513 566.7 525 600 523.5C633.3 522 666.7 507 700 480.3C733.3 453.7 766.7 415.3 800 419.3C833.3 423.3 866.7 469.7 883.3 492.8L900 516" fill="none" stroke-linecap="round" stroke-linejoin="miter" stroke="#0066FF" stroke-width="40"></path></svg>