<svg id="visual" viewBox="0 0 900 600" width="900" height="600" xmlns="http://www.w3.org/2000/svg" xmlns:xlink="http://www.w3.org/1999/xlink" version="1.1"><rect x="0" y="0" width="900" height="600" fill="#002233"></rect><path d="M0 434L16.7 447.3C33.3 460.7 66.7 487.3 100 486C133.3 484.7 166.7 455.3 200 442.3C233.3 429.3 266.7 432.7 300 423.5C333.3 414.3 366.7 392.7 400 387.5C433.3 382.3 466.7 393.7 500 416.7C533.3 439.7 566.7 474.3 600 465.3C633.3 456.3 666.7 403.7 700 386.7C733.3 369.7 766.7 388.3 800 413.2C833.3 438 866.7 469 883.3 484.5L900 500" fill="none" stroke-linecap="round" stroke-linejoin="miter" stroke="#0066FF" stroke-width="40"></path></svg>